PathFileType	4	(X/Y/Z)	Patient4_TMGait_0pt2_01_right_14.trc.trc
DataRate	CameraRate	NumFrames	NumMarkers	Units	OrigDataRate	OrigDataStartFrame	OrigNumFrames
42.813455657492	42.813455657492	4	33	mm	42.813455657492	124	       141
Frame#	Time	Sacral			L.Shoulder			Chest			R.Shoulder			Neck			R.ASIS			L.ASIS			R.Thigh.Superior			R.Thigh.Lateral			R.Thigh.Inferior			R.Patella			L.Thigh.Superior			L.Thigh.Lateral			L.Thigh.Inferior			L.Patella			L.Shank.Superior			L.Shank.Lateral			L.Shank.Inferior			R.Shank.Superior			R.Shank.Lateral			R.Shank.Inferior			R.Heel			R.Midfoot.Superior			R.Midfoot.Lateral			R.Toe			L.Heel			L.Midfoot.Lateral			L.Midfoot.Superior			L.Toe			L.Elbow			L.Wrist			R.Elbow			R.Wrist			
		X1	Y1	Z1	X2	Y2	Z2	X3	Y3	Z3	X4	Y4	Z4	X5	Y5	Z5	X6	Y6	Z6	X7	Y7	Z7	X8	Y8	Z8	X9	Y9	Z9	X10	Y10	Z10	X11	Y11	Z11	X12	Y12	Z12	X13	Y13	Z13	X14	Y14	Z14	X15	Y15	Z15	X16	Y16	Z16	X17	Y17	Z17	X18	Y18	Z18	X19	Y19	Z19	X20	Y20	Z20	X21	Y21	Z21	X22	Y22	Z22	X23	Y23	Z23	X24	Y24	Z24	X25	Y25	Z25	X26	Y26	Z26	X27	Y27	Z27	X28	Y28	Z28	X29	Y29	Z29	X30	Y30	Z30	X31	Y31	Z31	X32	Y32	Z32	X33	Y33	Z33	

124	33.672928571429	658.380626268131	996.012178871050	401.680131920376	834.619995155999	1430.970333029239	246.178739030485	903.503109072571	1375.656690178680	427.275033513649	780.848673835944	1443.648584229229	579.293044141213	775.435257498991	1493.349468683170	397.507923873208	867.717430932448	945.981857848958	559.058473357232	897.865865865290	961.992976318211	284.859869131803	931.573205877761	752.521083816142	541.086047716445	864.020238388120	637.556613875337	606.416169395910	952.827575332703	590.516827798272	533.798549267106	968.220034445089	507.392961540757	549.233196383802	900.711257260612	728.977758395109	319.885916703655	791.866979322938	625.534342176854	248.944868547988	847.458220120526	539.615728611655	322.569056967707	831.401536042997	474.234150999163	333.203123651348	800.155359704292	406.380743381394	324.509449999424	702.630015834979	299.584229987912	272.238886368985	734.696595238792	186.758634738053	350.876088295874	947.751697687533	417.510793039349	562.578096259682	883.962524226483	312.703932497955	631.651233555503	941.965457750700	217.944572374891	581.340256172836	828.087727166762	41.487741900313	566.724854189555	996.101220887236	104.337030588515	594.461562876556	916.048865238917	36.782675179796	635.805564346496	1119.387147571888	62.762255443689	614.818148868991	592.121449522133	38.445589329979	391.910106559105	667.702358211541	34.881003689610	312.874785013210	751.815508973994	94.943936688201	341.376275378987	880.116236981325	40.121938537216	315.420617622942	975.685726769055	1122.388638711948	112.108309780663	1231.471716886552	1130.432641103880	148.573512410970	638.393196075759	1126.801729166617	664.558392423550	625.607756470801	864.322423574114	655.371038188579	
125	33.696285714286	660.965218508673	994.997803633251	406.360277670922	834.947459914602	1430.093407945019	250.506294641444	904.394500943517	1375.460740903381	431.616483992679	781.640827648543	1443.192117350861	583.751341495411	775.497795975304	1492.466923558415	401.736419699190	870.681207855162	945.041846427761	563.386453402710	900.411897423161	961.699151113247	289.243846609375	934.429141396713	751.051081442266	543.842852971936	866.137433665727	635.882349466767	608.343512116557	954.552502835690	589.114949521321	535.295617206191	968.674240504982	505.361373437859	549.938974808943	901.464107847872	727.830814865784	323.016809636150	791.218775796682	625.632731721372	251.885463087734	845.964998465170	538.885869407817	325.040375842511	829.313674809902	473.562232180854	335.429161880175	797.611537890415	406.144943538154	326.349803602932	699.172579747714	300.306280575960	273.556183820705	730.726024201950	186.737963914532	351.424795034248	947.831756034613	415.319198886632	563.035980581568	883.643591035761	310.894605607211	632.026377438831	939.909375643720	215.930215604607	580.615436033029	823.714206868920	41.623118593883	565.977812598864	992.627618173015	102.861034696695	593.695752179631	911.524127768439	36.615184799382	635.193588040227	1115.261412827510	59.609977888478	613.885557070266	587.482121227462	38.580054745697	391.885960037313	663.092507905605	34.931460788646	312.944392431163	747.261166268197	94.959438621520	341.425716111767	875.518784116068	40.018386676803	315.392726947343	977.520079525051	1121.871758073354	117.060677676501	1232.708996979478	1137.343411483725	153.598401961141	641.033566541434	1126.025789624731	670.436839385421	629.314909814982	863.430829419271	662.768985374239	
126	33.719642857143	663.523965848354	994.247507120286	411.521630328994	835.460397514973	1429.396093632653	255.055766489698	905.666673305761	1375.343556464165	436.071411197576	783.059657171172	1442.876688016496	588.487788261384	775.955169413498	1491.768389842087	406.255891208052	873.904688017840	944.339804898473	567.852900823049	902.731175496993	961.503249425801	293.720108272822	937.615149411429	749.967479318331	546.420467679947	868.981222457988	634.574767305956	610.372958267621	956.736200093468	588.011374569256	536.664388896505	969.779669856601	503.481704685494	550.596021636486	902.280730483570	726.870469468630	326.249701088018	790.740848529854	625.795167598680	255.113330740399	844.929606135625	538.256114578551	327.676711638649	827.776010969336	472.885026168096	337.835653398581	795.480429586292	405.907070819259	328.376987362473	695.955288237477	301.196882898998	275.081770748107	726.943030783527	186.783505464340	352.030705136090	948.239256679271	413.311357519380	563.460813205342	883.485760196520	309.430879227439	632.556487705582	937.550442952418	214.070324867326	579.927164191384	818.552161516808	41.860485854156	565.402705878193	988.390682069248	101.539680027070	593.055084320902	906.217515284112	36.589475306379	634.782632626536	1110.443601753205	56.627598838453	613.212711834788	582.879799616420	38.882641734526	391.863588357163	658.526303795755	35.084941135953	313.032555964655	742.788490470503	95.015994719470	341.473858329856	870.954244400158	39.875056350861	315.347279007148	979.045997216625	1121.298929839467	122.125467114825	1233.612413096811	1143.013381594690	158.479235208397	644.405407786107	1125.356715325400	676.956577594932	633.821744310643	862.661615061010	671.001289189015	
127	33.743000000000	666.012428934912	993.804688880107	417.182231974403	836.131189192576	1428.912895185448	259.779908867153	907.306273054670	1375.340850259655	440.578645752818	785.135953300620	1442.766945824745	593.451690809338	776.809334836283	1491.299867601658	411.023127427013	877.328561237301	943.922204542343	572.444755456067	904.760022746744	961.426035279923	298.270663447194	940.962386216244	749.249943235907	548.948779079998	872.279219910577	633.631240784073	612.597527483378	959.147301264470	587.186360807667	538.046498091491	971.296973963045	501.818798627495	551.314061449269	903.081288706794	726.138760179269	329.591630369563	790.360636999280	626.068747632739	258.604481055874	844.283693227813	537.763498483661	330.436791494322	826.719201908140	472.243405029033	340.367761549086	793.707970754516	405.708899905307	330.546449219020	692.937652863342	302.289514289821	276.798588393578	723.335405336012	186.936550124051	352.672796592925	948.841905179355	411.556023498451	563.945041777736	883.466856999948	308.285209289841	633.283545734811	935.051819213612	212.429531500254	579.351255429740	813.048352611985	42.131623966982	565.018982560728	983.747299972545	100.414651459527	592.547716080476	900.589203921992	36.651050049709	634.562363834403	1105.335758425747	53.968810071629	612.775019683553	578.316970210017	39.425241915804	391.842481659304	654.000313347957	35.382484101534	313.136469021445	738.408327608756	95.128960512561	341.512945501892	866.410254481777	39.688780194116	315.284178473075	980.206878973403	1120.700245837185	127.248706431069	1234.207937452596	1147.437201372960	163.199595532852	648.414360849078	1124.928016915947	684.008002280453	638.917156121969	862.154281872211	679.847707993618	
